<svg width="55" height="66" viewBox="0 0 55 66" fill="none" xmlns="http://www.w3.org/2000/svg">
<path d="M27.5 65C24.02 65 20.574 64.1723 17.3589 62.5641C14.1438 60.956 11.2224 58.5989 8.76167 55.6274C6.30092 52.6559 4.34894 49.1283 3.01719 45.2459C1.68544 41.3634 1 37.2023 1 33C1 28.7977 1.68544 24.6365 3.01719 20.7541C4.34894 16.8717 6.30092 13.3441 8.76167 10.3726C11.2224 7.40111 14.1438 5.044 17.3589 3.43585C20.574 1.8277 24.02 0.999999 27.5 1C30.98 1 34.426 1.82771 37.6411 3.43586C40.8562 5.04401 43.7776 7.40111 46.2383 10.3726C48.6991 13.3441 50.6511 16.8717 51.9828 20.7541C53.3146 24.6366 54 28.7977 54 33C54 37.2023 53.3146 41.3635 51.9828 45.2459C50.6511 49.1283 48.6991 52.6559 46.2383 55.6274C43.7776 58.5989 40.8562 60.956 37.6411 62.5641C34.426 64.1723 30.98 65 27.5 65L27.5 65Z" stroke="#FF2D55" stroke-width="2" stroke-linecap="round"/>
</svg>
